<?xml version="1.0" encoding="UTF-8"?>
<svg version="1.1" xmlns="http://www.w3.org/2000/svg" width="512" height="512">
<path d="M0 0 C1.04249672 -0.00623996 2.08499345 -0.01247993 3.15908098 -0.01890898 C6.63977446 -0.03481792 10.11976563 -0.02224238 13.60046387 -0.00964355 C16.10095121 -0.01506557 18.60143535 -0.02218868 21.10191345 -0.03088379 C27.18095887 -0.04721874 33.25973037 -0.0448432 39.33876503 -0.03323323 C44.28083724 -0.02418673 49.22285412 -0.02298015 54.16493225 -0.02732849 C54.86925566 -0.02794142 55.57357908 -0.02855436 56.29924563 -0.02918586 C57.73022252 -0.03046481 59.1611994 -0.03176166 60.59217626 -0.03307623 C73.99938953 -0.04447281 87.40649327 -0.03138284 100.81368858 -0.00987476 C112.308912 0.00799542 123.80397383 0.00489105 135.29919434 -0.0135498 C148.65957724 -0.03497286 162.01986422 -0.04337426 175.3802619 -0.03110075 C176.80587099 -0.0298266 178.23148011 -0.02856912 179.65708923 -0.02732849 C180.35845175 -0.02671139 181.05981427 -0.02609429 181.7824302 -0.02545848 C186.71655431 -0.02200988 191.6506174 -0.02782334 196.58473206 -0.0372467 C203.22995434 -0.04965945 209.8749191 -0.04077759 216.52012825 -0.01766968 C218.95818132 -0.01238304 221.39626007 -0.01389554 223.8343029 -0.02272034 C227.16388834 -0.03366055 230.49249811 -0.01992918 233.82202148 0 C234.78545361 -0.00892289 235.74888574 -0.01784577 236.74151278 -0.02703905 C243.90515488 0.05605574 249.18345094 1.73020888 254.65319824 6.43762207 C255.19202637 7.0795752 255.73085449 7.72152832 256.28601074 8.38293457 C256.84030762 9.01973145 257.39460449 9.65652832 257.96569824 10.31262207 C261.27799089 15.34372604 261.72824923 20.50800449 261.74694824 26.39074707 C261.75360504 27.12743622 261.76026184 27.86412537 261.76712036 28.62313843 C261.77719322 30.17113769 261.78193905 31.71917991 261.78161621 33.26721191 C261.78601148 35.63332961 261.82244357 37.99761225 261.86022949 40.36340332 C261.8660945 41.87251156 261.87006601 43.38162861 261.87194824 44.89074707 C261.88631927 45.5949881 261.90069031 46.29922913 261.91549683 47.02481079 C261.88387449 50.42196085 261.62048924 52.22624126 259.56970215 54.98400879 C257.41101074 56.50793457 257.41101074 56.50793457 254.41101074 56.50793457 C254.41101074 59.47793457 254.41101074 62.44793457 254.41101074 65.50793457 C255.73101074 65.83793457 257.05101074 66.16793457 258.41101074 66.50793457 C260.13846302 67.66350269 260.13846302 67.66350269 261.41101074 69.50793457 C261.78015423 72.40709209 261.78015423 72.40709209 261.77177429 76.0188446 C261.77433757 76.68294336 261.77690084 77.34704212 261.77954179 78.03126508 C261.78449106 80.26095701 261.76796879 82.48997475 261.75158691 84.71960449 C261.75074088 86.31608565 261.75121531 87.91256798 261.75291443 89.50904846 C261.75377675 93.84767724 261.73611272 98.18605826 261.71519256 102.52462935 C261.69646522 107.05700033 261.69467843 111.5893767 261.69111633 116.1217804 C261.68178426 124.70656587 261.65715477 133.29123701 261.62706786 141.87597209 C261.59356 151.64851192 261.57704694 161.42105716 261.56198156 171.19364011 C261.53060621 191.29846879 261.47782315 211.40319449 261.41101074 231.50793457 C263.40571594 231.49343872 265.40042114 231.47894287 267.39512634 231.46444702 C273.92876965 231.60539366 280.17231933 234.06422647 284.82726383 238.65192127 C289.98625333 244.69780717 290.99681192 251.55715358 290.90930176 259.24353027 C290.91482056 260.17166534 290.92033936 261.09980042 290.92602539 262.05606079 C290.93529654 264.05626125 290.9354913 266.05652075 290.92743111 268.05672646 C290.91472174 271.23250602 290.92616511 274.40742642 290.94346619 277.58317566 C290.97010391 283.18615845 290.97576459 288.78892851 290.97436523 294.39196777 C290.97213321 303.34750056 290.98650114 312.30276914 291.0299511 321.25819969 C291.03971376 324.36895817 291.03111051 327.47929297 291.02125549 330.59004211 C291.04214673 348.90264462 293.80840453 364.55250399 307.00866699 378.25793457 C317.9661697 388.52057125 331.32047768 393.84410981 346.41101074 393.50793457 C361.71786327 392.23236353 374.09335041 386.39333066 384.72351074 375.25793457 C396.07126947 361.70108347 397.86161031 346.16330408 397.84338379 329.17297363 C397.85241769 327.4569326 397.86274886 325.74089798 397.87426758 324.02487183 C397.90167265 319.40174552 397.91109951 314.77874219 397.91712165 310.15554523 C397.92654856 305.31086231 397.95275523 300.46626971 397.97712708 295.62164307 C398.02067753 286.46349161 398.04929469 277.3053578 398.07245046 268.14713454 C398.09956375 257.71411246 398.14347134 247.28118176 398.18873918 236.84822512 C398.28142129 215.40151087 398.35317703 193.95476926 398.41101074 172.50793457 C397.75590515 172.51681702 397.10079956 172.52569946 396.42584229 172.53485107 C389.61288165 172.62328507 382.80008381 172.68365267 375.98669434 172.72766113 C373.44333271 172.74778729 370.90001741 172.77509094 368.35681152 172.80969238 C364.7028867 172.85816427 361.04957318 172.88089374 357.39538574 172.89855957 C356.25672058 172.91920471 355.11805542 172.93984985 353.94488525 172.96112061 C352.88408752 172.96142273 351.82328979 172.96172485 350.73034668 172.96203613 C349.79768982 172.97091858 348.86503296 172.97980103 347.90411377 172.98895264 C344.63129354 172.35749632 343.4690378 171.07638428 341.41101074 168.50793457 C340.44615067 165.61335436 340.27926686 163.75898067 340.26574707 160.74865723 C340.25617729 159.30167953 340.25617729 159.30167953 340.24641418 157.82546997 C340.24474495 156.26450089 340.24474495 156.26450089 340.24304199 154.67199707 C340.23971359 153.60049408 340.23638519 152.52899109 340.23295593 151.42501831 C340.22789078 149.15708852 340.22554748 146.88915126 340.22570801 144.62121582 C340.22352379 141.15364268 340.20536974 137.68638881 340.18640137 134.21887207 C340.18346691 132.01574816 340.18148247 129.81262274 340.18054199 127.60949707 C340.17335648 126.57289948 340.16617096 125.53630188 340.1587677 124.46829224 C340.16184433 123.49733612 340.16492096 122.52638 340.16809082 121.52600098 C340.1666658 120.67567291 340.16524078 119.82534485 340.16377258 118.94924927 C340.52549663 115.3774615 341.43872149 112.48336942 343.99572754 109.91809082 C344.91865601 109.25100098 344.91865601 109.25100098 345.86022949 108.57043457 C346.88600098 107.81633301 346.88600098 107.81633301 347.93249512 107.04699707 C348.64728027 106.53910645 349.36206543 106.03121582 350.09851074 105.50793457 C351.14168457 104.74609863 351.14168457 104.74609863 352.20593262 103.96887207 C353.59015501 102.96075492 354.9792755 101.95932601 356.37341309 100.96496582 C357.73075549 99.99436679 359.0801435 99.01254554 360.42126465 98.01965332 C365.19299798 94.50793457 365.19299798 94.50793457 367.41101074 94.50793457 C367.37620605 93.67391113 367.34140137 92.8398877 367.30554199 91.98059082 C367.1014561 83.49644857 367.40884331 76.16365671 372.66101074 69.19543457 C380.43187651 61.60117939 387.42097256 61.50793457 398.41101074 61.50793457 C398.41101074 53.25793457 398.41101074 45.00793457 398.41101074 36.50793457 C397.09101074 35.84793457 395.77101074 35.18793457 394.41101074 34.50793457 C393.09485452 33.51723034 391.80816015 32.48659961 390.54772949 31.42590332 C389.4639502 30.52194824 389.4639502 30.52194824 388.35827637 29.59973145 C387.23969238 28.65710449 387.23969238 28.65710449 386.09851074 27.69543457 C379.94184221 22.51562059 379.94184221 22.51562059 373.49304199 17.71105957 C370.34907287 15.46365959 368.81021228 14.09338851 367.41101074 10.50793457 C367.48443543 6.91012507 368.01356513 5.06730246 370.09851074 2.13293457 C373.13433906 -0.00035019 374.7483893 0.15159579 378.41101074 0.50793457 C380.94616699 1.87121582 380.94616699 1.87121582 383.47351074 3.82043457 C384.42226074 4.54875488 385.37101074 5.2770752 386.34851074 6.02746582 C390.70782376 9.55828695 394.99546581 13.16472393 399.24694824 16.82434082 C402.88434098 19.94131343 406.66780217 22.86128061 410.48522949 25.75402832 C413.53113736 28.52809046 414.34516967 30.57766393 414.63806152 34.71594238 C414.62758789 35.95183105 414.61711426 37.18771973 414.60632324 38.46105957 C414.6020784 39.45139191 414.6020784 39.45139191 414.5977478 40.46173096 C414.58659489 42.56065354 414.5615002 44.65914199 414.53601074 46.75793457 C414.52597458 48.18501172 414.51684984 49.61209559 414.50866699 51.03918457 C414.48667185 54.52890785 414.4521761 58.0183788 414.41101074 61.50793457 C415.14851563 61.49415771 415.88602051 61.48038086 416.64587402 61.46618652 C417.62282227 61.45547119 418.59977051 61.44475586 419.60632324 61.43371582 C421.05289307 61.41305054 421.05289307 61.41305054 422.52868652 61.39196777 C428.211216 61.62059741 432.71952728 63.16243636 437.16101074 66.69543457 C437.90351074 67.62355957 438.64601074 68.55168457 439.41101074 69.50793457 C439.83716171 69.96978149 440.26331268 70.43162842 440.70237732 70.9074707 C446.22709703 77.92925567 445.11296765 86.82571745 445.03991699 95.28918457 C445.04074677 97.02978666 445.04321026 98.77038867 445.04722595 100.51098633 C445.05007599 104.14904525 445.03546111 107.78648581 445.00793457 111.42443848 C444.9738529 116.07144897 444.97987744 120.71735463 444.99859715 125.36441803 C445.00920091 128.95571996 445.00019879 132.54676791 444.98521233 136.13804626 C444.98005479 137.85073592 444.98048261 139.56345238 444.98675728 141.27613831 C445.02481146 157.90220552 445.02481146 157.90220552 440.41101074 164.50793457 C435.61777577 169.30116955 430.98460572 172.37956297 424.18273926 172.62390137 C423.02185791 172.61012451 421.86097656 172.59634766 420.66491699 172.58215332 C419.49388428 172.57143799 418.32285156 172.56072266 417.11633301 172.54968262 C416.22357666 172.53590576 415.33082031 172.52212891 414.41101074 172.50793457 C414.41377612 173.39693262 414.4165415 174.28593067 414.41939068 175.20186806 C414.48577688 196.87924581 414.53535268 218.55660593 414.56644726 240.2340641 C414.58188582 250.71731859 414.60291751 261.20050502 414.6373291 271.68371582 C414.66732393 280.8257872 414.68660761 289.96780927 414.69327623 299.10992849 C414.69717146 303.94615689 414.70626242 308.78224428 414.72820091 313.61842728 C414.74872571 318.18039495 414.75481258 322.74216496 414.75033379 327.30417442 C414.75115189 328.96891419 414.75702153 330.63366131 414.76862717 332.29836082 C414.91093743 353.78455533 409.99189775 373.54618903 394.84851074 389.63293457 C380.48035421 403.30550712 362.73162615 410.52546477 342.77429199 410.50402832 C321.12997129 409.38490503 304.98903539 400.89192973 290.39929199 385.36730957 C286.64339825 380.94463919 283.85887616 375.99471199 281.16101074 370.88293457 C280.83133301 370.28070068 280.50165527 369.6784668 280.1619873 369.0579834 C272.48176625 353.7506032 273.87168953 335.69524131 273.72351074 319.07043457 C273.69028083 316.48903763 273.65578609 313.90765665 273.61999512 311.32629395 C273.53574555 305.05359641 273.46863126 298.78093092 273.41101074 292.50793457 C269.45101074 292.50793457 265.49101074 292.50793457 261.41101074 292.50793457 C261.41101074 349.59793457 261.41101074 406.68793457 261.41101074 465.50793457 C268.67101074 465.50793457 275.93101074 465.50793457 283.41101074 465.50793457 C294.70086581 470.0238766 294.70086581 470.0238766 297.41101074 473.44543457 C297.94726074 474.09383301 298.48351074 474.74223145 299.03601074 475.41027832 C303.19284524 481.75181277 303.10810548 488.1348171 302.41101074 495.50793457 C300.70209541 502.09482974 295.99910783 506.82893827 290.41101074 510.50793457 C284.70170879 513.03594122 279.13455813 512.79297055 273.0105896 512.77536011 C271.85672355 512.77989122 270.7028575 512.78442233 269.51402581 512.78909075 C266.32001716 512.79954798 263.12615039 512.80106284 259.9321301 512.798702 C256.48425773 512.79829332 253.03641876 512.80933757 249.58856201 512.81881714 C242.83823398 512.83541428 236.08794087 512.84092602 229.33759414 512.84204189 C223.85244952 512.84299257 218.36731642 512.84710381 212.88217545 512.85344315 C197.33269813 512.87104869 181.78324841 512.88028259 166.23376106 512.8787822 C165.39587162 512.87870229 164.55798218 512.87862237 163.69470215 512.87854004 C162.43633548 512.8784174 162.43633548 512.8784174 161.15254726 512.87829228 C147.54354529 512.87747861 133.93465381 512.89663839 120.32568382 512.92481677 C106.35399333 512.95351829 92.38235679 512.96735872 78.41063607 512.96562922 C70.56563977 512.96496458 62.72075942 512.97048972 54.87578964 512.99198532 C48.19982688 513.01016078 41.52403269 513.01457423 34.84805594 513.00096647 C31.44090233 512.9944195 28.03407248 512.9943814 24.62694931 513.01167297 C20.93682784 513.02700638 17.24756628 513.01789552 13.5574646 513.00241089 C12.47596126 513.01269801 11.39445793 513.02298514 10.28018177 513.033584 C3.08179475 512.96647569 3.08179475 512.96647569 -0.28564262 510.6645298 C-1.58898926 508.50793457 -1.58898926 508.50793457 -1.58898926 505.50793457 C-5.21898926 505.50793457 -8.84898926 505.50793457 -12.58898926 505.50793457 C-12.91898926 507.15793457 -13.24898926 508.80793457 -13.58898926 510.50793457 C-18.58220867 513.83674751 -24.62435221 512.84050505 -30.47497559 512.8236084 C-32.75110707 512.82046957 -35.02591109 512.84383426 -37.30187988 512.8692627 C-53.50643926 512.94098798 -53.50643926 512.94098798 -60.33898926 507.19543457 C-67.13483926 499.07816929 -68.45479168 492.94703802 -67.58898926 482.50793457 C-65.95248863 476.39570331 -61.9521179 471.7778997 -56.58898926 468.50793457 C-50.06100829 465.53373764 -44.70845418 465.12894551 -37.58898926 465.32043457 C-36.62348145 465.33396973 -35.65797363 465.34750488 -34.66320801 465.3614502 C-32.304535 465.39647999 -29.94707155 465.44559373 -27.58898926 465.50793457 C-27.59050814 464.56301793 -27.59202702 463.61810128 -27.59359193 462.6445508 C-27.68322479 406.66265081 -27.75171847 350.68075746 -27.79325058 294.69880012 C-27.79823992 287.97957918 -27.80342614 281.2603584 -27.80871582 274.5411377 C-27.80923886 273.87249424 -27.80976189 273.20385079 -27.81030078 272.51494541 C-27.82734636 250.8420307 -27.85739174 229.16915769 -27.89417814 207.49626825 C-27.93298178 184.59331993 -27.95697352 161.69038823 -27.96534324 138.78740644 C-27.97083643 125.06638836 -27.98819706 111.34549003 -28.02065513 97.6245088 C-28.04177068 88.22028555 -28.048196 78.81612437 -28.04299477 69.41187912 C-28.0404284 63.98309153 -28.04441038 58.55451345 -28.06581116 53.12576294 C-28.08525884 48.15623047 -28.08627071 43.18704867 -28.07258484 38.21750015 C-28.07089305 36.41924691 -28.07598226 34.62097191 -28.08852199 32.8227616 C-28.10458166 30.37771282 -28.09591987 27.93392883 -28.08118057 25.48889923 C-28.09694265 24.44230326 -28.09694265 24.44230326 -28.11302316 23.37456393 C-28.02247541 16.72489466 -25.46510111 11.80096017 -21.33898926 6.75793457 C-14.53574798 1.19164625 -8.67968505 -0.08038745 0 0 Z M358.38415527 118.8248291 C354.14593902 124.58800612 355.52419614 132.60627197 355.84851074 139.44543457 C355.89370006 141.0996227 355.93475692 142.75392919 355.97155762 144.4083252 C356.07030237 148.44446874 356.22530996 152.4748944 356.41101074 156.50793457 C360.37101074 156.50793457 364.33101074 156.50793457 368.41101074 156.50793457 C367.91601074 135.71793457 367.91601074 135.71793457 367.41101074 114.50793457 C363.69914405 114.50793457 361.20863223 116.57871629 358.38415527 118.8248291 Z " fill="#FE8B01" transform="translate(67.5889892578125,-0.5079345703125)"/>
<path d="M0 0 C1.04249672 -0.00623996 2.08499345 -0.01247993 3.15908098 -0.01890898 C6.63977446 -0.03481792 10.11976563 -0.02224238 13.60046387 -0.00964355 C16.10095121 -0.01506557 18.60143535 -0.02218868 21.10191345 -0.03088379 C27.18095887 -0.04721874 33.25973037 -0.0448432 39.33876503 -0.03323323 C44.28083724 -0.02418673 49.22285412 -0.02298015 54.16493225 -0.02732849 C54.86925566 -0.02794142 55.57357908 -0.02855436 56.29924563 -0.02918586 C57.73022252 -0.03046481 59.1611994 -0.03176166 60.59217626 -0.03307623 C73.99938953 -0.04447281 87.40649327 -0.03138284 100.81368858 -0.00987476 C112.308912 0.00799542 123.80397383 0.00489105 135.29919434 -0.0135498 C148.65957724 -0.03497286 162.01986422 -0.04337426 175.3802619 -0.03110075 C176.80587099 -0.0298266 178.23148011 -0.02856912 179.65708923 -0.02732849 C180.35845175 -0.02671139 181.05981427 -0.02609429 181.7824302 -0.02545848 C186.71655431 -0.02200988 191.6506174 -0.02782334 196.58473206 -0.0372467 C203.22995434 -0.04965945 209.8749191 -0.04077759 216.52012825 -0.01766968 C218.95818132 -0.01238304 221.39626007 -0.01389554 223.8343029 -0.02272034 C227.16388834 -0.03366055 230.49249811 -0.01992918 233.82202148 0 C234.78545361 -0.00892289 235.74888574 -0.01784577 236.74151278 -0.02703905 C243.90515488 0.05605574 249.18345094 1.73020888 254.65319824 6.43762207 C255.19202637 7.0795752 255.73085449 7.72152832 256.28601074 8.38293457 C256.84030762 9.01973145 257.39460449 9.65652832 257.96569824 10.31262207 C261.27799089 15.34372604 261.72824923 20.50800449 261.74694824 26.39074707 C261.75360504 27.12743622 261.76026184 27.86412537 261.76712036 28.62313843 C261.77719322 30.17113769 261.78193905 31.71917991 261.78161621 33.26721191 C261.78601148 35.63332961 261.82244357 37.99761225 261.86022949 40.36340332 C261.8660945 41.87251156 261.87006601 43.38162861 261.87194824 44.89074707 C261.88631927 45.5949881 261.90069031 46.29922913 261.91549683 47.02481079 C261.88415205 50.39214224 261.62747053 52.21556496 259.60095215 54.95275879 C256.3972176 57.22787463 254.24177984 57.0551873 250.41101074 56.50793457 C248.22375488 54.9161377 248.22375488 54.9161377 246.41101074 52.50793457 C245.91271973 49.27160645 245.91271973 49.27160645 245.90710449 45.47668457 C245.89297264 44.46728821 245.89297264 44.46728821 245.8785553 43.4375 C245.84995479 41.29399974 245.84682508 39.15161 245.84851074 37.00793457 C245.84489889 34.86442168 245.8353277 32.72171422 245.80775452 30.57836914 C245.7832946 28.63379867 245.78103322 26.68898667 245.77990723 24.7442627 C245.38616838 21.28999254 244.87552737 19.91135345 242.41101074 17.50793457 C239.66172528 16.59150608 238.04506856 16.38052458 235.21396065 16.37371349 C234.35415568 16.36925565 233.49435072 16.36479781 232.60849106 16.36020488 C231.66346691 16.36038924 230.71844275 16.3605736 229.74478149 16.36076355 C228.74119217 16.35708686 227.73760284 16.35341017 226.70360172 16.34962207 C223.32497904 16.33856768 219.9463871 16.33473845 216.56774902 16.33093262 C214.15180361 16.32466942 211.73585916 16.31802275 209.31991577 16.3110199 C202.05968214 16.29178231 194.79945103 16.28119135 187.53919965 16.27229211 C184.12089816 16.26790887 180.70259821 16.26254224 177.28429794 16.25730324 C165.9230106 16.24029353 154.56172422 16.22579821 143.2004261 16.2185545 C140.25255456 16.21664459 137.30468303 16.21472426 134.35681152 16.21276855 C133.25778676 16.21204294 133.25778676 16.21204294 132.13655947 16.21130268 C120.26107075 16.20299798 108.38568261 16.17765254 96.51023783 16.14518788 C84.32067291 16.11213577 72.13115916 16.09410751 59.94154918 16.09091026 C53.09635674 16.08874369 46.25131107 16.07997353 39.40616226 16.05444908 C32.96953137 16.03050333 26.53309321 16.02690474 20.0964241 16.03721046 C17.73127871 16.03770774 15.36612061 16.03133134 13.00101471 16.01765442 C9.7774247 16.00005277 6.55479667 16.00698425 3.33120728 16.02018738 C2.39064456 16.00921813 1.45008185 15.99824889 0.48101723 15.98694724 C-0.38400323 15.99552813 -1.24902368 16.00410902 -2.14025688 16.01294994 C-2.88402167 16.01197313 -3.62778646 16.01099633 -4.39408958 16.00998992 C-7.70440725 16.76098323 -9.28490698 18.02679416 -11.58898926 20.50793457 C-12.09252514 23.20180731 -12.26389119 25.27237758 -12.21984577 27.96547318 C-12.22730337 28.72310322 -12.23476096 29.48073326 -12.24244455 30.26132178 C-12.2614432 32.8149843 -12.24466564 35.36717472 -12.22822571 37.9208374 C-12.23453362 39.76395912 -12.24303416 41.60707442 -12.25354594 43.45017695 C-12.27611897 48.52638758 -12.26746159 53.60214539 -12.25386035 58.67837048 C-12.24462185 64.14805778 -12.26412444 69.61764984 -12.28018188 75.08731079 C-12.30405857 84.5676541 -12.3096214 94.04786737 -12.30283546 103.52823639 C-12.29305043 117.23532246 -12.31074539 130.94226396 -12.33520278 144.64932665 C-12.37413195 166.88670127 -12.39080046 189.12404586 -12.39343262 211.3614502 C-12.39604282 232.96628945 -12.40920969 254.57108046 -12.43640137 276.17590332 C-12.43809614 277.53422085 -12.4397906 278.89253839 -12.44148475 280.25085592 C-12.45465494 290.76716235 -12.46849776 301.28346787 -12.48250282 311.79977322 C-12.55102369 363.36917003 -12.5662441 414.93845801 -12.58898926 466.50793457 C72.88101074 466.50793457 158.35101074 466.50793457 246.41101074 466.50793457 C246.36460449 437.89590332 246.31819824 409.28387207 246.27038574 379.80480957 C246.24995928 361.73058986 246.23051481 343.65637721 246.21569824 325.58215332 C246.20786635 316.09175591 246.19978431 306.60135875 246.19128418 297.11096191 C246.19022918 295.92143972 246.18917419 294.73191753 246.18808722 293.50634921 C246.17067396 274.28414039 246.13912989 255.06197928 246.10239956 235.83979878 C246.06503799 216.12332608 246.04278503 196.4068784 246.03465676 176.69037175 C246.02915905 164.51709257 246.01177411 152.34394813 245.97934487 140.17071041 C245.95825601 131.83130285 245.9517979 123.49196528 245.95700523 115.15253296 C245.9595758 110.33586112 245.95554243 105.51942527 245.93418884 100.70279503 C245.91479947 96.29721957 245.91369083 91.89204001 245.92741516 87.48644677 C245.9291127 85.88880085 245.92397402 84.29113075 245.91147801 82.69353279 C245.89552286 80.52860574 245.9040145 78.36512487 245.91881943 76.20022202 C245.91730055 74.99574913 245.91578166 73.79127624 245.91421676 72.55030417 C246.51367311 68.87922954 247.44512522 67.69438165 250.41101074 65.50793457 C254.27514761 64.95591502 256.4084407 64.7673271 259.59969711 67.12473679 C262.00144407 70.2847848 261.90425342 72.19054976 261.89202881 76.13909912 C261.89544651 76.8040523 261.89886421 77.46900548 261.90238547 78.15410876 C261.90897101 80.38088858 261.88697936 82.60646126 261.8651123 84.83312988 C261.86398396 86.42975842 261.86461743 88.02638903 261.86688232 89.62301636 C261.86803092 93.95753358 261.84449818 98.29160886 261.81658649 102.62602329 C261.79159708 107.1557091 261.78923279 111.68540482 261.78448486 116.21514893 C261.77204784 124.7928608 261.73921642 133.37036899 261.6990869 141.94799113 C261.65439179 151.7132865 261.63238784 161.47859155 261.61230516 171.24396372 C261.57048442 191.33206773 261.50011824 211.41998833 261.41101074 231.50793457 C263.40571594 231.49343872 265.40042114 231.47894287 267.39512634 231.46444702 C273.92876965 231.60539366 280.17231933 234.06422647 284.82726383 238.65192127 C289.98625333 244.69780717 290.99681192 251.55715358 290.90930176 259.24353027 C290.91482056 260.17166534 290.92033936 261.09980042 290.92602539 262.05606079 C290.93529654 264.05626125 290.9354913 266.05652075 290.92743111 268.05672646 C290.91472174 271.23250602 290.92616511 274.40742642 290.94346619 277.58317566 C290.97010391 283.18615845 290.97576459 288.78892851 290.97436523 294.39196777 C290.97213321 303.34750056 290.98650114 312.30276914 291.0299511 321.25819969 C291.03971376 324.36895817 291.03111051 327.47929297 291.02125549 330.59004211 C291.04214673 348.90264462 293.80840453 364.55250399 307.00866699 378.25793457 C317.9661697 388.52057125 331.32047768 393.84410981 346.41101074 393.50793457 C361.71786327 392.23236353 374.09335041 386.39333066 384.72351074 375.25793457 C396.07126947 361.70108347 397.86161031 346.16330408 397.84338379 329.17297363 C397.85241769 327.4569326 397.86274886 325.74089798 397.87426758 324.02487183 C397.90167265 319.40174552 397.91109951 314.77874219 397.91712165 310.15554523 C397.92654856 305.31086231 397.95275523 300.46626971 397.97712708 295.62164307 C398.02067753 286.46349161 398.04929469 277.3053578 398.07245046 268.14713454 C398.09956375 257.71411246 398.14347134 247.28118176 398.18873918 236.84822512 C398.28142129 215.40151087 398.35317703 193.95476926 398.41101074 172.50793457 C397.75590515 172.51681702 397.10079956 172.52569946 396.42584229 172.53485107 C389.61288165 172.62328507 382.80008381 172.68365267 375.98669434 172.72766113 C373.44333271 172.74778729 370.90001741 172.77509094 368.35681152 172.80969238 C364.7028867 172.85816427 361.04957318 172.88089374 357.39538574 172.89855957 C356.25672058 172.91920471 355.11805542 172.93984985 353.94488525 172.96112061 C352.88408752 172.96142273 351.82328979 172.96172485 350.73034668 172.96203613 C349.79768982 172.97091858 348.86503296 172.97980103 347.90411377 172.98895264 C344.63129354 172.35749632 343.4690378 171.07638428 341.41101074 168.50793457 C340.44615067 165.61335436 340.27926686 163.75898067 340.26574707 160.74865723 C340.25617729 159.30167953 340.25617729 159.30167953 340.24641418 157.82546997 C340.24474495 156.26450089 340.24474495 156.26450089 340.24304199 154.67199707 C340.23971359 153.60049408 340.23638519 152.52899109 340.23295593 151.42501831 C340.22789078 149.15708852 340.22554748 146.88915126 340.22570801 144.62121582 C340.22352379 141.15364268 340.20536974 137.68638881 340.18640137 134.21887207 C340.18346691 132.01574816 340.18148247 129.81262274 340.18054199 127.60949707 C340.17335648 126.57289948 340.16617096 125.53630188 340.1587677 124.46829224 C340.16184433 123.49733612 340.16492096 122.52638 340.16809082 121.52600098 C340.1666658 120.67567291 340.16524078 119.82534485 340.16377258 118.94924927 C340.52549663 115.3774615 341.43872149 112.48336942 343.99572754 109.91809082 C344.91865601 109.25100098 344.91865601 109.25100098 345.86022949 108.57043457 C346.88600098 107.81633301 346.88600098 107.81633301 347.93249512 107.04699707 C348.64728027 106.53910645 349.36206543 106.03121582 350.09851074 105.50793457 C351.14168457 104.74609863 351.14168457 104.74609863 352.20593262 103.96887207 C353.59015501 102.96075492 354.9792755 101.95932601 356.37341309 100.96496582 C357.73075549 99.99436679 359.0801435 99.01254554 360.42126465 98.01965332 C365.19299798 94.50793457 365.19299798 94.50793457 367.41101074 94.50793457 C367.37620605 93.67391113 367.34140137 92.8398877 367.30554199 91.98059082 C367.1014561 83.49644857 367.40884331 76.16365671 372.66101074 69.19543457 C380.43187651 61.60117939 387.42097256 61.50793457 398.41101074 61.50793457 C398.41101074 53.25793457 398.41101074 45.00793457 398.41101074 36.50793457 C397.09101074 35.84793457 395.77101074 35.18793457 394.41101074 34.50793457 C393.09485452 33.51723034 391.80816015 32.48659961 390.54772949 31.42590332 C389.4639502 30.52194824 389.4639502 30.52194824 388.35827637 29.59973145 C387.23969238 28.65710449 387.23969238 28.65710449 386.09851074 27.69543457 C379.94184221 22.51562059 379.94184221 22.51562059 373.49304199 17.71105957 C370.34907287 15.46365959 368.81021228 14.09338851 367.41101074 10.50793457 C367.48443543 6.91012507 368.01356513 5.06730246 370.09851074 2.13293457 C373.13433906 -0.00035019 374.7483893 0.15159579 378.41101074 0.50793457 C380.94616699 1.87121582 380.94616699 1.87121582 383.47351074 3.82043457 C384.42226074 4.54875488 385.37101074 5.2770752 386.34851074 6.02746582 C390.70782376 9.55828695 394.99546581 13.16472393 399.24694824 16.82434082 C402.88434098 19.94131343 406.66780217 22.86128061 410.48522949 25.75402832 C413.53113736 28.52809046 414.34516967 30.57766393 414.63806152 34.71594238 C414.62758789 35.95183105 414.61711426 37.18771973 414.60632324 38.46105957 C414.6020784 39.45139191 414.6020784 39.45139191 414.5977478 40.46173096 C414.58659489 42.56065354 414.5615002 44.65914199 414.53601074 46.75793457 C414.52597458 48.18501172 414.51684984 49.61209559 414.50866699 51.03918457 C414.48667185 54.52890785 414.4521761 58.0183788 414.41101074 61.50793457 C415.14851563 61.49415771 415.88602051 61.48038086 416.64587402 61.46618652 C417.62282227 61.45547119 418.59977051 61.44475586 419.60632324 61.43371582 C421.05289307 61.41305054 421.05289307 61.41305054 422.52868652 61.39196777 C428.211216 61.62059741 432.71952728 63.16243636 437.16101074 66.69543457 C437.90351074 67.62355957 438.64601074 68.55168457 439.41101074 69.50793457 C439.83716171 69.96978149 440.26331268 70.43162842 440.70237732 70.9074707 C446.22709703 77.92925567 445.11296765 86.82571745 445.03991699 95.28918457 C445.04074677 97.02978666 445.04321026 98.77038867 445.04722595 100.51098633 C445.05007599 104.14904525 445.03546111 107.78648581 445.00793457 111.42443848 C444.9738529 116.07144897 444.97987744 120.71735463 444.99859715 125.36441803 C445.00920091 128.95571996 445.00019879 132.54676791 444.98521233 136.13804626 C444.98005479 137.85073592 444.98048261 139.56345238 444.98675728 141.27613831 C445.02481146 157.90220552 445.02481146 157.90220552 440.41101074 164.50793457 C435.61777577 169.30116955 430.98460572 172.37956297 424.18273926 172.62390137 C423.02185791 172.61012451 421.86097656 172.59634766 420.66491699 172.58215332 C419.49388428 172.57143799 418.32285156 172.56072266 417.11633301 172.54968262 C416.22357666 172.53590576 415.33082031 172.52212891 414.41101074 172.50793457 C414.41377612 173.39693262 414.4165415 174.28593067 414.41939068 175.20186806 C414.48577688 196.87924581 414.53535268 218.55660593 414.56644726 240.2340641 C414.58188582 250.71731859 414.60291751 261.20050502 414.6373291 271.68371582 C414.66732393 280.8257872 414.68660761 289.96780927 414.69327623 299.10992849 C414.69717146 303.94615689 414.70626242 308.78224428 414.72820091 313.61842728 C414.74872571 318.18039495 414.75481258 322.74216496 414.75033379 327.30417442 C414.75115189 328.96891419 414.75702153 330.63366131 414.76862717 332.29836082 C414.91093743 353.78455533 409.99189775 373.54618903 394.84851074 389.63293457 C380.48035421 403.30550712 362.73162615 410.52546477 342.77429199 410.50402832 C321.12997129 409.38490503 304.98903539 400.89192973 290.39929199 385.36730957 C286.64339825 380.94463919 283.85887616 375.99471199 281.16101074 370.88293457 C280.83133301 370.28070068 280.50165527 369.6784668 280.1619873 369.0579834 C272.48176625 353.7506032 273.87168953 335.69524131 273.72351074 319.07043457 C273.69028083 316.48903763 273.65578609 313.90765665 273.61999512 311.32629395 C273.53574555 305.05359641 273.46863126 298.78093092 273.41101074 292.50793457 C269.45101074 292.50793457 265.49101074 292.50793457 261.41101074 292.50793457 C261.41101074 349.59793457 261.41101074 406.68793457 261.41101074 465.50793457 C268.67101074 465.50793457 275.93101074 465.50793457 283.41101074 465.50793457 C294.70086581 470.0238766 294.70086581 470.0238766 297.41101074 473.44543457 C297.94726074 474.09383301 298.48351074 474.74223145 299.03601074 475.41027832 C303.19284524 481.75181277 303.10810548 488.1348171 302.41101074 495.50793457 C300.70209541 502.09482974 295.99910783 506.82893827 290.41101074 510.50793457 C284.70170879 513.03594122 279.13455813 512.79297055 273.0105896 512.77536011 C271.85672355 512.77989122 270.7028575 512.78442233 269.51402581 512.78909075 C266.32001716 512.79954798 263.12615039 512.80106284 259.9321301 512.798702 C256.48425773 512.79829332 253.03641876 512.80933757 249.58856201 512.81881714 C242.83823398 512.83541428 236.08794087 512.84092602 229.33759414 512.84204189 C223.85244952 512.84299257 218.36731642 512.84710381 212.88217545 512.85344315 C197.33269813 512.87104869 181.78324841 512.88028259 166.23376106 512.8787822 C165.39587162 512.87870229 164.55798218 512.87862237 163.69470215 512.87854004 C162.43633548 512.8784174 162.43633548 512.8784174 161.15254726 512.87829228 C147.54354529 512.87747861 133.93465381 512.89663839 120.32568382 512.92481677 C106.35399333 512.95351829 92.38235679 512.96735872 78.41063607 512.96562922 C70.56563977 512.96496458 62.72075942 512.97048972 54.87578964 512.99198532 C48.19982688 513.01016078 41.52403269 513.01457423 34.84805594 513.00096647 C31.44090233 512.9944195 28.03407248 512.9943814 24.62694931 513.01167297 C20.93682784 513.02700638 17.24756628 513.01789552 13.5574646 513.00241089 C12.47596126 513.01269801 11.39445793 513.02298514 10.28018177 513.033584 C3.08179475 512.96647569 3.08179475 512.96647569 -0.28564262 510.6645298 C-1.58898926 508.50793457 -1.58898926 508.50793457 -1.58898926 505.50793457 C-5.21898926 505.50793457 -8.84898926 505.50793457 -12.58898926 505.50793457 C-12.91898926 507.15793457 -13.24898926 508.80793457 -13.58898926 510.50793457 C-18.58220867 513.83674751 -24.62435221 512.84050505 -30.47497559 512.8236084 C-32.75110707 512.82046957 -35.02591109 512.84383426 -37.30187988 512.8692627 C-53.50643926 512.94098798 -53.50643926 512.94098798 -60.33898926 507.19543457 C-67.13483926 499.07816929 -68.45479168 492.94703802 -67.58898926 482.50793457 C-65.95248863 476.39570331 -61.9521179 471.7778997 -56.58898926 468.50793457 C-50.06100829 465.53373764 -44.70845418 465.12894551 -37.58898926 465.32043457 C-36.62348145 465.33396973 -35.65797363 465.34750488 -34.66320801 465.3614502 C-32.304535 465.39647999 -29.94707155 465.44559373 -27.58898926 465.50793457 C-27.59050814 464.56301793 -27.59202702 463.61810128 -27.59359193 462.6445508 C-27.68322479 406.66265081 -27.75171847 350.68075746 -27.79325058 294.69880012 C-27.79823992 287.97957918 -27.80342614 281.2603584 -27.80871582 274.5411377 C-27.80923886 273.87249424 -27.80976189 273.20385079 -27.81030078 272.51494541 C-27.82734636 250.8420307 -27.85739174 229.16915769 -27.89417814 207.49626825 C-27.93298178 184.59331993 -27.95697352 161.69038823 -27.96534324 138.78740644 C-27.97083643 125.06638836 -27.98819706 111.34549003 -28.02065513 97.6245088 C-28.04177068 88.22028555 -28.048196 78.81612437 -28.04299477 69.41187912 C-28.0404284 63.98309153 -28.04441038 58.55451345 -28.06581116 53.12576294 C-28.08525884 48.15623047 -28.08627071 43.18704867 -28.07258484 38.21750015 C-28.07089305 36.41924691 -28.07598226 34.62097191 -28.08852199 32.8227616 C-28.10458166 30.37771282 -28.09591987 27.93392883 -28.08118057 25.48889923 C-28.09694265 24.44230326 -28.09694265 24.44230326 -28.11302316 23.37456393 C-28.02247541 16.72489466 -25.46510111 11.80096017 -21.33898926 6.75793457 C-14.53574798 1.19164625 -8.67968505 -0.08038745 0 0 Z M358.38415527 118.8248291 C354.14593902 124.58800612 355.52419614 132.60627197 355.84851074 139.44543457 C355.89370006 141.0996227 355.93475692 142.75392919 355.97155762 144.4083252 C356.07030237 148.44446874 356.22530996 152.4748944 356.41101074 156.50793457 C360.37101074 156.50793457 364.33101074 156.50793457 368.41101074 156.50793457 C367.91601074 135.71793457 367.91601074 135.71793457 367.41101074 114.50793457 C363.69914405 114.50793457 361.20863223 116.57871629 358.38415527 118.8248291 Z " fill="#000000" transform="translate(67.5889892578125,-0.5079345703125)"/>
<path d="M0 0 C0.66465448 -0.00297112 1.32930896 -0.00594224 2.01410449 -0.0090034 C4.24571329 -0.0176889 6.47726844 -0.01919851 8.70889282 -0.02069092 C10.30711481 -0.02531916 11.9053357 -0.03034383 13.5035553 -0.03573608 C17.8486157 -0.04886054 22.19366065 -0.055305 26.53873777 -0.05974674 C29.25261996 -0.06267707 31.96649791 -0.06678178 34.68037796 -0.07125092 C43.16942589 -0.08492526 51.65846415 -0.09459252 60.14752233 -0.09845281 C69.95095082 -0.10293516 79.75424 -0.12049152 89.55762613 -0.1494534 C97.13307652 -0.17105758 104.70848769 -0.18115639 112.28396857 -0.18249393 C116.80966077 -0.18354276 121.335222 -0.18946723 125.86088181 -0.20731354 C130.11755036 -0.22377266 134.37398918 -0.22596029 138.63067818 -0.21717453 C140.19276735 -0.21640302 141.75486878 -0.22076182 143.31692696 -0.23063278 C145.45008444 -0.24332192 147.58242448 -0.23749283 149.71557617 -0.22705078 C150.9090888 -0.22851734 152.10260143 -0.2299839 153.33228111 -0.2314949 C156.81266282 0.1791271 158.69675053 1.05273245 161.48477173 3.14044189 C162.65440701 5.47971247 162.60807762 6.83720837 162.60502625 9.44308472 C162.60708824 10.79768044 162.60708824 10.79768044 162.60919189 12.17964172 C162.60559662 13.17298019 162.60200134 14.16631866 162.59829712 15.1897583 C162.59844315 16.2336824 162.59858917 17.27760651 162.59873962 18.35316467 C162.59804095 21.81613212 162.59025063 25.2790463 162.58242798 28.74200439 C162.58056364 31.13811209 162.57913981 33.53422016 162.57814026 35.93032837 C162.57431634 42.24653164 162.56448711 48.56271204 162.55343628 54.87890625 C162.54321947 61.32024832 162.53864206 67.76159407 162.53359985 74.20294189 C162.52286474 86.84878501 162.50598118 99.49461224 162.48477173 112.14044189 C161.82785937 112.14283025 161.17094702 112.1452186 160.49412823 112.14767933 C144.52024557 112.20677956 128.54653806 112.28229741 112.57282543 112.37615681 C104.84809418 112.42114912 97.12340938 112.46055575 89.39859009 112.48687744 C82.66672428 112.50982983 75.93500507 112.54319666 69.20325547 112.58914346 C65.63782808 112.61311321 62.0725462 112.63181726 58.50704002 112.6380558 C54.52964692 112.64520994 50.55261913 112.67561219 46.5753479 112.70806885 C44.79618484 112.70591621 44.79618484 112.70591621 42.9810791 112.70372009 C41.89994339 112.71625824 40.81880768 112.72879639 39.70491028 112.74171448 C38.76375964 112.74632344 37.822609 112.75093241 36.85293865 112.75568104 C34.450821 112.96435811 34.450821 112.96435811 32.72101307 114.41536236 C31.17027714 116.35585021 31.17027714 116.35585021 30.48477173 120.14044189 C26.85477173 120.14044189 23.22477173 120.14044189 19.48477173 120.14044189 C18.82477173 118.49044189 18.16477173 116.84044189 17.48477173 115.14044189 C14.73037657 112.38604674 13.0187397 112.83054914 9.16445923 112.72637939 C7.90762329 112.68770752 6.65078735 112.64903564 5.35586548 112.60919189 C4.03715454 112.57825439 2.7184436 112.54731689 1.35977173 112.51544189 C0.01990255 112.47726161 -1.3199421 112.43820984 -2.65975952 112.39825439 C-5.94477446 112.30372159 -9.22977965 112.21817034 -12.51522827 112.14044189 C-12.58527978 98.11083993 -12.63799808 84.08126505 -12.67066479 70.05152416 C-12.68634078 63.53740066 -12.70761448 57.0233944 -12.74154663 50.50933838 C-12.77407088 44.22645727 -12.79206671 37.94368914 -12.79986 31.66073036 C-12.80541597 29.26006605 -12.81626497 26.85940813 -12.83241844 24.45879173 C-12.85410022 21.10408391 -12.85719904 17.74984683 -12.85580444 14.39508057 C-12.86659027 13.39598663 -12.8773761 12.3968927 -12.88848877 11.36752319 C-12.88436478 10.45467056 -12.88024078 9.54181793 -12.87599182 8.6013031 C-12.8787572 7.80763934 -12.88152258 7.01397558 -12.88437176 6.19626141 C-12.41634094 3.5897224 -11.59146817 2.74124526 -9.51522827 1.14044189 C-6.13327437 0.01312393 -3.56630798 0.00889414 0 0 Z " fill="#C6E2F9" transform="translate(109.51522827148438,54.85955810546875)"/>
<path d="M0 0 C0.69142037 -0.00523668 1.38284073 -0.01047336 2.09521323 -0.01586872 C4.405723 -0.03083744 6.71601068 -0.03157318 9.02656555 -0.03224182 C10.68593722 -0.03986556 12.34530535 -0.04829343 14.00466919 -0.0574646 C18.50903996 -0.07939875 23.01334285 -0.08820736 27.51776099 -0.09329104 C30.33454996 -0.09693672 33.1513212 -0.10317797 35.96810341 -0.11029243 C45.80270288 -0.13478579 55.63724964 -0.14783802 65.47187805 -0.15138245 C74.62584955 -0.15501484 83.77948517 -0.18488923 92.93335408 -0.22678703 C100.80192288 -0.26153379 108.67038064 -0.27693167 116.5390256 -0.27762848 C121.2342843 -0.27841998 125.92920097 -0.2870994 130.62438011 -0.31562614 C135.04454907 -0.34188119 139.46409433 -0.3439708 143.88430595 -0.3279705 C145.50074376 -0.32616175 147.11721804 -0.33279472 148.73357773 -0.34878922 C158.60580519 -0.44047129 167.34760745 -0.05813083 174.93926525 7.08821964 C179.4641899 11.93833619 181.25779005 16.51011738 181.27958679 23.17449951 C181.29238174 24.94706116 181.29238174 24.94706116 181.30543518 26.75543213 C181.30407562 28.68729622 181.30407562 28.68729622 181.3026886 30.65818787 C181.3086763 32.03509383 181.31548241 33.41199644 181.32304382 34.78889465 C181.34068768 38.52250574 181.34539855 42.25602511 181.3466754 45.98967385 C181.34809861 48.32469078 181.35237144 50.65968451 181.35766983 52.99469566 C181.3761656 61.14767813 181.38434112 69.30059527 181.38276672 77.45359802 C181.38156582 85.04207144 181.40265903 92.6302602 181.43425405 100.21866161 C181.46044578 106.74283852 181.47113279 113.26692264 181.4698559 119.7911517 C181.46934707 123.68370812 181.47498642 127.57601155 181.49621201 131.4685154 C181.5156432 135.13188751 181.51568607 138.7947666 181.50117874 142.45815659 C181.49810638 144.43422598 181.51473339 146.41029567 181.53205872 148.3862915 C181.47145983 156.98362201 180.34246068 162.31379859 174.69966125 169.02415466 C169.0780257 173.73064024 165.0314672 175.77237287 157.66319275 175.78881836 C156.95710731 175.79576389 156.25102187 175.80270942 155.5235399 175.80986542 C153.17518034 175.82805273 150.82784053 175.817895 148.47944641 175.80760193 C146.78859709 175.8146647 145.09775409 175.82341123 143.40692139 175.83370972 C138.82619521 175.85617524 134.24581503 175.85327036 129.6650548 175.84438825 C125.83563731 175.83927047 122.0062844 175.84657747 118.17687356 175.85386032 C109.13948996 175.87085087 100.10227522 175.86730263 91.06489563 175.85057068 C81.75405696 175.83365486 72.44368731 175.84947836 63.13289988 175.88179356 C55.12755359 175.90852119 47.12235302 175.91575675 39.11696661 175.90727848 C34.34076172 175.90235793 29.56483888 175.90451736 24.78866959 175.92506599 C20.29538583 175.94347269 15.80277445 175.93740383 11.30952644 175.91286659 C9.66527069 175.90787423 8.02096327 175.91130743 6.37674904 175.92401505 C-9.94658957 176.04014301 -9.94658957 176.04014301 -16.98783875 170.27415466 C-19.14408875 167.92259216 -19.14408875 167.92259216 -20.48783875 165.64915466 C-20.95190125 164.89376404 -21.41596375 164.13837341 -21.89408875 163.36009216 C-23.83887882 159.65109966 -24.11783522 156.74019354 -24.13500977 152.61431885 C-24.14216507 151.43536041 -24.14932037 150.25640198 -24.1566925 149.04171753 C-24.15938141 147.74661758 -24.16207031 146.45151764 -24.1648407 145.11717224 C-24.17110672 143.74056324 -24.17775365 142.36395593 -24.18475342 140.98735046 C-24.20578296 136.46447423 -24.21615603 131.94159772 -24.22612 127.41868591 C-24.23016822 125.86024648 -24.23428517 124.30180722 -24.23847008 122.74336815 C-24.25752078 115.41989938 -24.27175102 108.09644068 -24.28008205 100.7729519 C-24.28984884 92.32729793 -24.31615412 83.88190644 -24.35658294 75.43634492 C-24.38677802 68.90372716 -24.4015542 62.37118447 -24.40486306 55.83849829 C-24.40721006 51.93918852 -24.41612417 48.04015919 -24.44132423 44.14092445 C-24.4646691 40.46939323 -24.46881279 36.79832581 -24.45856285 33.1267395 C-24.45783437 31.14586404 -24.47688128 29.16501179 -24.49662781 27.18423462 C-24.44883768 18.97313494 -23.58748343 13.38190029 -18.022995 7.03196716 C-17.37201843 6.49313904 -16.72104187 5.95431091 -16.05033875 5.39915466 C-15.40194031 4.84485779 -14.75354187 4.29056091 -14.085495 3.71946716 C-9.48236129 0.54784804 -5.53753829 0.02083455 0 0 Z M-8.98783875 19.27415466 C-9.08330805 20.67826783 -9.10972403 22.08715275 -9.10809326 23.49450684 C-9.10946793 24.40461014 -9.11084259 25.31471344 -9.11225891 26.25239563 C-9.10866364 27.25868011 -9.10506836 28.2649646 -9.10136414 29.30174255 C-9.10151016 30.3552742 -9.10165619 31.40880585 -9.10180664 32.4942627 C-9.101107 35.99513266 -9.09331222 39.49595018 -9.085495 42.99681091 C-9.083631 45.4167681 -9.08220701 47.83672566 -9.08120728 50.25668335 C-9.07738066 56.64030491 -9.06754916 63.02390388 -9.0565033 69.40751648 C-9.04629225 75.91579381 -9.04171032 82.42407477 -9.03666687 88.93235779 C-9.02592702 101.71296641 -9.00903986 114.49355934 -8.98783875 127.27415466 C-8.15534607 127.28873718 -7.32285339 127.3033197 -6.46513367 127.31834412 C-3.37294222 127.37944097 -0.28141792 127.45360022 2.81025696 127.53660583 C4.80506755 127.58616785 6.80023383 127.620666 8.79536438 127.65501404 C10.6757843 127.70818787 10.6757843 127.70818787 12.5941925 127.76243591 C13.75152893 127.78862 14.90886536 127.81480408 16.10127258 127.84178162 C19.01216125 128.27415466 19.01216125 128.27415466 20.8507843 129.55613708 C22.01216125 131.27415466 22.01216125 131.27415466 23.01216125 135.27415466 C26.64216125 135.27415466 30.27216125 135.27415466 34.01216125 135.27415466 C34.67216125 133.62415466 35.33216125 131.97415466 36.01216125 130.27415466 C38.57772133 127.70859459 39.54694294 128.01661191 43.11204529 127.99568176 C44.73168686 127.97893654 44.73168686 127.97893654 46.38404846 127.96185303 C47.57375244 127.95969284 48.76345642 127.95753265 49.98921204 127.95530701 C51.23796112 127.94526138 52.48671021 127.93521576 53.77330017 127.92486572 C57.20286078 127.89922 60.63225493 127.88239769 64.06187296 127.86943769 C67.64405466 127.85383489 71.22615184 127.82703566 74.80827332 127.80140686 C81.59387433 127.75456841 88.37949116 127.71784891 95.1651715 127.68473399 C102.88942775 127.64654829 110.61359921 127.5971289 118.33778405 127.54674983 C134.22918189 127.44335468 150.12062721 127.35411905 166.01216125 127.27415466 C166.0822443 113.39220767 166.13494648 99.51028812 166.16759777 85.62820053 C166.18326714 79.18248619 166.20452887 72.73689054 166.23847961 66.29124451 C166.27102733 60.07319723 166.28900469 53.85526424 166.29679298 47.63713837 C166.30234471 45.26242015 166.3131856 42.88770832 166.32935143 40.51303864 C166.35106433 37.19206117 166.3541307 33.87155865 166.35273743 30.55052185 C166.36352325 29.56437393 166.37430908 28.57822601 166.38542175 27.56219482 C166.37923576 26.20347511 166.37923576 26.20347511 166.3729248 24.81730652 C166.37569018 24.0319389 166.37845556 23.24657127 166.38130474 22.43740463 C165.90936706 19.67176144 164.91749108 18.30948633 163.01216125 16.27415466 C159.63020735 15.14683669 157.06324096 15.14260691 153.49693298 15.13371277 C152.8322785 15.13074165 152.16762402 15.12777052 151.4828285 15.12470937 C149.25121969 15.11602387 147.01966454 15.11451426 144.78804016 15.11302185 C143.18981817 15.10839361 141.59159728 15.10336894 139.99337769 15.09797668 C135.64831729 15.08485223 131.30327234 15.07840777 126.95819521 15.07396603 C124.24431303 15.0710357 121.53043508 15.06693099 118.81655502 15.06246185 C110.3275071 15.04878751 101.83846883 15.03912024 93.34941065 15.03525996 C83.54598216 15.03077761 73.74269298 15.01322125 63.93930686 14.98425937 C56.36385646 14.96265519 48.7884453 14.95255638 41.21296442 14.95121884 C36.68727221 14.95017001 32.16171098 14.94424554 27.63605118 14.92639923 C23.37938263 14.90994011 19.12294381 14.90775248 14.86625481 14.91653824 C13.30416563 14.91730974 11.74206421 14.91295095 10.18000603 14.90307999 C8.04684855 14.89039085 5.9145085 14.89621994 3.78135681 14.90666199 C2.58784418 14.90519543 1.39433155 14.90372887 0.16465187 14.90221786 C-3.60717827 15.34722551 -6.28307665 16.56939257 -8.98783875 19.27415466 Z " fill="#010100" transform="translate(105.98783874511719,39.72584533691406)"/>
<path d="M0 0 C1.3032924 -0.01493286 1.3032924 -0.01493286 2.63291395 -0.0301674 C3.57261018 -0.01560319 4.51230641 -0.00103899 5.48047829 0.01396656 C6.49015872 0.00969444 7.49983915 0.00542231 8.54011595 0.00102073 C11.92153719 -0.00721152 15.3017166 0.02028109 18.68302345 0.04761219 C21.10752267 0.0490226 23.53202402 0.04823082 25.95652199 0.04539967 C31.17527573 0.04426129 36.39374896 0.0584373 41.61241722 0.08658886 C49.15765511 0.12726431 56.70274195 0.14025017 64.24807759 0.14652882 C76.49047605 0.1574657 88.73270772 0.19072331 100.97501564 0.23804188 C112.86563216 0.28395324 124.75620335 0.31933739 136.64689064 0.34058094 C137.38011521 0.34189456 138.11333978 0.34320818 138.86878328 0.3445616 C142.54724072 0.3510869 146.22569847 0.35740541 149.90415645 0.36362112 C180.40950365 0.41543522 210.91464859 0.50385614 241.41983986 0.61523914 C241.41983986 0.94523914 241.41983986 1.27523914 241.41983986 1.61523914 C164.52983986 1.61523914 87.63983986 1.61523914 8.41983986 1.61523914 C8.08983986 149.78523914 7.75983986 297.95523914 7.41983986 450.61523914 C86.61983986 450.61523914 165.81983986 450.61523914 247.41983986 450.61523914 C247.41983986 320.59523914 247.41983986 190.57523914 247.41983986 56.61523914 C247.74983986 56.61523914 248.07983986 56.61523914 248.41983986 56.61523914 C248.41983986 186.96523914 248.41983986 317.31523914 248.41983986 451.61523914 C162.94983986 451.61523914 77.47983986 451.61523914 -10.58016014 451.61523914 C-10.82214824 339.89292097 -10.82214824 339.89292097 -10.87312889 293.32031727 C-10.88412901 283.33808552 -10.89537459 273.35585412 -10.9073161 263.37362345 C-10.90893514 262.01960122 -10.91054537 260.66557898 -10.91214667 259.31155673 C-10.93775763 237.71740209 -10.98278761 216.12334158 -11.03794347 194.52924386 C-11.09612041 171.71096673 -11.13213025 148.89273093 -11.14469111 126.07437962 C-11.15293672 112.40088701 -11.17900874 98.72766438 -11.22765894 85.05425485 C-11.25929811 75.68647941 -11.2689781 66.31884418 -11.26116841 56.95101915 C-11.25731341 51.54072746 -11.26335204 46.13090855 -11.29539299 40.72070026 C-11.32449045 35.77153863 -11.32613212 30.82316979 -11.30555351 25.87397244 C-11.30300845 24.07980139 -11.31070609 22.28558181 -11.32945924 20.49150697 C-11.35341912 18.05863399 -11.34064396 15.62865086 -11.31844711 13.19582558 C-11.33420919 12.49342258 -11.34997128 11.79101958 -11.366211 11.06733164 C-11.30999745 8.35524022 -11.06084868 6.22637411 -9.35615156 4.05906631 C-6.40900841 1.41263498 -3.95292356 -0.01007371 0 0 Z " fill="#DD620A" transform="translate(65.58016014099121,14.384760856628418)"/>
<path d="M0 0 C10.24843089 -0.09260014 20.49676259 -0.16371415 30.74552631 -0.20724869 C35.50424772 -0.22814109 40.26268333 -0.25648872 45.02124023 -0.30175781 C49.61185205 -0.34515689 54.20218864 -0.36912465 58.79298973 -0.37950897 C60.54614789 -0.38691106 62.29929065 -0.40136539 64.05233192 -0.42292023 C66.50437832 -0.45187605 68.9552814 -0.4559594 71.4074707 -0.45410156 C72.49935448 -0.47567322 72.49935448 -0.47567322 73.61329651 -0.49768066 C75.64009094 -0.48101807 75.64009094 -0.48101807 79 0 C81.66758212 2.76408096 82.37426065 4.70800383 82.36076355 8.50518799 C82.36488754 9.40258698 82.36901154 10.29998596 82.3732605 11.22457886 C82.36247467 12.20137604 82.35168884 13.17817322 82.34057617 14.18457031 C82.34123329 15.73626419 82.34123329 15.73626419 82.34190369 17.31930542 C82.3398134 20.73910383 82.31647046 24.15841221 82.29296875 27.578125 C82.28737366 29.94895154 82.28310315 32.31978155 82.28010559 34.69061279 C82.26865002 40.93124972 82.23917643 47.17167726 82.20599365 53.41223145 C82.16991343 60.89953281 82.15613504 68.38690417 82.13863373 75.87426758 C82.1095398 87.24965736 82.05205697 98.62458768 82 110 C51.97 110 21.94 110 -9 110 C-9.33 105.38 -9.66 100.76 -10 96 C-8.02 95.7525 -6.04 95.505 -4 95.25 C3.86652039 94.03581968 10.22260531 91.62124889 16 86 C20.79497222 79.37903546 23.36656107 73.58082634 23.4375 65.3125 C23.47037109 64.65572266 23.50324219 63.99894531 23.53710938 63.32226562 C23.64317461 53.34249151 16.86885148 44.92495539 11.5625 36.9375 C11.01529297 36.10412109 10.46808594 35.27074219 9.90429688 34.41210938 C8.81543465 32.75626564 7.72257778 31.10304093 6.62548828 29.45263672 C5.51566089 27.77806087 4.41546985 26.09706863 3.32373047 24.41064453 C2.79279785 23.5957959 2.26186523 22.78094727 1.71484375 21.94140625 C1.24038818 21.20736572 0.76593262 20.4733252 0.27709961 19.71704102 C-0.9034156 17.86046654 -0.9034156 17.86046654 -3 17 C-2.88366642 15.47847921 -2.7564113 13.95779277 -2.625 12.4375 C-2.55539063 11.59058594 -2.48578125 10.74367188 -2.4140625 9.87109375 C-1.92335994 6.46858073 -0.96676917 3.2954956 0 0 Z " fill="#DFF0FB" transform="translate(190,56)"/>
<path d="M0 0 C1.22123817 -0.01292336 1.22123817 -0.01292336 2.46714783 -0.02610779 C5.13549384 -0.04865015 7.80277934 -0.04204994 10.47119141 -0.03295898 C12.34152535 -0.0382004 14.21185665 -0.04447878 16.08218384 -0.05174255 C19.99420648 -0.06212562 23.90586492 -0.05761642 27.81787109 -0.04296875 C32.81002993 -0.0257989 37.8010358 -0.04926491 42.79306602 -0.08445835 C46.65379337 -0.10651172 50.51424832 -0.10497148 54.37501907 -0.09669304 C56.21446623 -0.09587758 58.05393421 -0.10266284 59.89332199 -0.11746407 C79.16438809 -0.24876179 79.16438809 -0.24876179 86.44775391 5.53344727 C93.58189417 13.25698111 93.65492915 19.55903663 93.69775391 29.78344727 C93.71837891 30.9990332 93.73900391 32.21461914 93.76025391 33.46704102 C93.79519491 41.47726509 92.97156315 46.29344774 88.88525391 53.15844727 C79.77658574 62.03355984 69.03856722 61.25794874 57.15869141 61.16235352 C55.28642641 61.16318353 53.41416151 61.16564789 51.54190063 61.16966248 C47.63334004 61.17250936 43.72535601 61.15792546 39.81689453 61.13037109 C34.82245551 61.09624285 29.82904329 61.10233288 24.83455467 61.12103367 C20.97390267 61.13163044 17.11348724 61.12264235 13.25285721 61.10764885 C11.41177702 61.10248941 9.57067191 61.10292148 7.72959518 61.1091938 C5.15252753 61.11468051 2.57690289 61.09416377 0 61.06689453 C-0.75034012 61.07342041 -1.50068024 61.07994629 -2.27375793 61.08666992 C-8.75500609 60.97079988 -13.91051171 58.84841659 -18.79443359 54.56860352 C-19.33326172 53.91762695 -19.87208984 53.26665039 -20.42724609 52.59594727 C-20.98154297 51.94754883 -21.53583984 51.29915039 -22.10693359 50.63110352 C-26.40508642 44.3929736 -25.91914401 38.02497966 -25.92724609 30.72094727 C-25.95173828 29.57045898 -25.97623047 28.4199707 -26.00146484 27.23461914 C-26.03079037 18.70577966 -24.79101756 13.49194572 -19.30224609 6.78344727 C-13.24557968 1.82799293 -7.76782058 -0.0675585 0 0 Z " fill="#020200" transform="translate(107.55224609375,231.466552734375)"/>
<path d="M0 0 C1.15788464 -0.01043099 2.31576927 -0.02086198 3.50874132 -0.03160906 C4.78158324 -0.02268617 6.05442516 -0.01376328 7.36583805 -0.00457001 C8.7310425 -0.00917786 10.096242 -0.01553001 11.46143109 -0.02347898 C15.21679612 -0.04021188 18.97175573 -0.03190823 22.72712243 -0.01953411 C26.77561193 -0.01050192 30.82403061 -0.02444427 34.87250614 -0.0354538 C42.80527053 -0.05326374 50.73788374 -0.04938792 58.67065411 -0.03780323 C65.11694412 -0.02877826 71.56319169 -0.02754085 78.0094862 -0.0318985 C78.92614519 -0.03251143 79.84280419 -0.03312436 80.78724073 -0.03375587 C82.64929295 -0.03503474 84.51134516 -0.03633159 86.37339736 -0.03764623 C103.84457428 -0.04905945 121.31566733 -0.03592705 138.78683049 -0.01444477 C153.78342831 0.0034239 168.77990227 0.00032545 183.77649784 -0.01811981 C201.18260474 -0.0395186 218.58863806 -0.04795759 235.99475628 -0.03567076 C237.85035391 -0.03439654 239.70595154 -0.03313905 241.56154919 -0.0318985 C242.47458617 -0.0312814 243.38762316 -0.03066429 244.32832794 -0.03002849 C250.76763185 -0.02657239 257.20688917 -0.0324096 263.64618587 -0.04181671 C271.4925742 -0.0530272 279.33880243 -0.05001685 287.18517237 -0.02869374 C291.18986118 -0.01816998 295.19428292 -0.01408382 299.19896984 -0.02729034 C302.86371334 -0.03919314 306.52794176 -0.03268726 310.1926384 -0.01138014 C312.14921491 -0.00478184 314.10582704 -0.01786923 316.06236643 -0.03160906 C317.22285881 -0.02117807 318.38335119 -0.01074708 319.57901001 0 C320.58044255 0.00064941 321.58187509 0.00129882 322.61365408 0.00196791 C326.14936798 0.64926365 327.8373622 1.97329637 330.35242558 4.50336456 C330.91492558 8.00336456 330.91492558 8.00336456 330.35242558 11.50336456 C328.13379528 14.41053529 326.83297629 15.34318099 323.35242558 16.50336456 C321.78709094 16.59587132 320.21809751 16.63172764 318.650033 16.63364983 C317.67752598 16.63727417 316.70501896 16.64089852 315.70304203 16.6446327 C314.09669392 16.64303032 314.09669392 16.64303032 312.45789433 16.64139557 C311.32222019 16.64421685 310.18654606 16.64703813 309.01645756 16.6499449 C305.19094008 16.65831307 301.36545147 16.65963103 297.53992558 16.66107941 C294.80546698 16.6651787 292.0710122 16.67082238 289.33655643 16.67647552 C283.43852745 16.68800535 277.54050133 16.69624735 271.64246464 16.70259476 C262.32441156 16.712913 253.00639423 16.73347368 243.68836308 16.75571442 C240.50183975 16.76319415 237.31531628 16.77060785 234.12879276 16.77800179 C232.93427368 16.78077763 232.93427368 16.78077763 231.7156229 16.78360956 C222.6492481 16.80453976 213.58286936 16.8233675 204.51648808 16.84125519 C203.6875806 16.84289337 202.85867313 16.84453155 202.00464725 16.84621938 C188.56296204 16.87252133 175.12127408 16.89115558 161.67957401 16.90784709 C147.88763076 16.92525058 134.09574163 16.95407582 120.30384159 16.99273646 C111.79173648 17.01616864 103.27971957 17.03013391 94.76758194 17.0320641 C88.93807492 17.03416895 83.10865576 17.04706004 77.27918816 17.06854342 C73.91270907 17.0806044 70.54655288 17.08608016 67.18003178 17.08183098 C63.53547997 17.07796428 59.89144992 17.09230016 56.24695683 17.11136627 C55.17605808 17.10583658 54.10515934 17.10030688 53.00180912 17.09460962 C51.54304859 17.10786938 51.54304859 17.10786938 50.05481815 17.12139702 C49.21308552 17.12275355 48.37135288 17.12411008 47.5041132 17.12550771 C44.80782635 17.59900138 43.96232031 18.31285392 42.35242558 20.50336456 C42.02242558 21.82336456 41.69242558 23.14336456 41.35242558 24.50336456 C37.72242558 24.50336456 34.09242558 24.50336456 30.35242558 24.50336456 C29.69242558 22.85336456 29.03242558 21.20336456 28.35242558 19.50336456 C26.48095762 17.20109743 26.48095762 17.20109743 23.46668339 17.26386261 C22.25850956 17.26426544 21.05033573 17.26466827 19.80555058 17.26508331 C18.47220717 17.24965464 17.13887366 17.23335036 15.80555058 17.21625519 C13.70767193 17.19985021 11.61051886 17.19083714 9.51258183 17.19794464 C-3.68866109 17.21510127 -3.68866109 17.21510127 -7.56163692 14.18305206 C-9.64757442 11.50336456 -9.64757442 11.50336456 -10.27257442 7.94086456 C-9.15278604 1.78202844 -6.02449547 0.0039074 0 0 Z " fill="#363744" transform="translate(24.647574424743652,480.4966354370117)"/>
<path d="M0 0 C1.24245483 -0.00574036 1.24245483 -0.00574036 2.51000977 -0.01159668 C4.25831317 -0.01431425 6.00665734 -0.00696381 7.75488281 0.00976562 C10.42865777 0.03117918 13.09974596 0.00996056 15.7734375 -0.015625 C17.47396425 -0.01298169 19.17448934 -0.00785665 20.875 0 C22.07201538 -0.01214539 22.07201538 -0.01214539 23.29321289 -0.02453613 C26.63250422 0.03178449 28.90121134 0.14285912 31.64758301 2.13183594 C34.0557677 5.36004833 33.94479591 7.43186183 33.95507812 11.43945312 C33.9620874 12.12611557 33.96909668 12.81277802 33.97631836 13.52024841 C33.99389013 15.78474651 33.98227995 18.04798972 33.96875 20.3125 C33.97144519 21.88904052 33.97532783 23.46557942 33.98034668 25.04211426 C33.98624056 28.34415534 33.97768278 31.64576323 33.95898438 34.94775391 C33.93619431 39.1782606 33.94931807 43.40775228 33.97327423 47.63822174 C33.98773551 50.89308303 33.98312483 54.14770407 33.97276306 57.40257263 C33.97009666 58.96227641 33.97336254 60.52200208 33.98268127 62.0816803 C33.99285302 64.26272262 33.97734041 66.44212647 33.95507812 68.62304688 C33.95030457 70.48358704 33.95030457 70.48358704 33.94543457 72.38171387 C33.34497838 76.10494629 32.37002567 77.2460251 29.4375 79.53125 C24.76516379 81.8674181 17.79936549 80.8431696 12.60766602 80.88134766 C10.95778284 80.89789678 9.30797105 80.92517356 7.65844727 80.96337891 C5.27582742 81.01826149 2.89488628 81.0400371 0.51171875 81.0546875 C-0.22178299 81.07735687 -0.95528473 81.10002625 -1.71101379 81.12338257 C-5.42849247 81.10811372 -7.29739367 80.73760242 -10.25735474 78.43363953 C-13.10870149 74.84353217 -13.19007488 73.05216939 -13.19360352 68.50952148 C-13.20075882 67.82271301 -13.20791412 67.13590454 -13.21528625 66.42828369 C-13.23212941 64.16895047 -13.21280205 61.91161384 -13.19140625 59.65234375 C-13.19223528 58.07723324 -13.19469593 56.50212281 -13.19871521 54.92701721 C-13.20157004 51.63084783 -13.18690218 48.33535917 -13.15942383 45.03930664 C-13.12531259 40.81664107 -13.13137101 36.59519012 -13.1500864 32.37246609 C-13.16065905 29.12187085 -13.15171684 25.87155784 -13.13670158 22.62098885 C-13.13152308 21.0640859 -13.13199758 19.50715345 -13.13824654 17.95025444 C-13.14370347 15.77405354 -13.12331365 13.59958713 -13.09594727 11.42358398 C-13.08974869 10.18624008 -13.08355011 8.94889618 -13.0771637 7.67405701 C-11.84221063 0.13278458 -6.60154799 -0.06698189 0 0 Z " fill="#FD8B01" transform="translate(463.5625,76.46875)"/>
<path d="M0 0 C1.65087891 1.91235352 1.65087891 1.91235352 3.2890625 4.37890625 C3.89484131 5.28310303 4.50062012 6.1872998 5.12475586 7.11889648 C5.74358643 8.06966064 6.36241699 9.0204248 7 10 C7.59756104 10.90886963 8.19512207 11.81773926 8.81079102 12.75415039 C10.62178516 15.53284757 12.40770242 18.32623434 14.1875 21.125 C15.09145508 22.53072266 15.09145508 22.53072266 16.01367188 23.96484375 C23.05046899 35.01052968 26.54671751 42.61289331 25 56 C23.82667602 59.75078978 22.22610407 62.77492402 20 66 C19.62746094 66.58136719 19.25492188 67.16273438 18.87109375 67.76171875 C15.5707202 72.32704384 10.92439867 74.57166195 6 77 C5.01 77.495 5.01 77.495 4 78 C-14.3249221 79.20195726 -14.3249221 79.20195726 -21 74 C-21.69480469 73.49082031 -22.38960937 72.98164063 -23.10546875 72.45703125 C-28.9040659 67.84139017 -31.68701014 62.93896959 -34 56 C-34.20177846 53.46047392 -34.32297138 50.97980753 -34.375 48.4375 C-34.41238281 47.77169922 -34.44976562 47.10589844 -34.48828125 46.41992188 C-34.67631861 35.46152211 -26.63354734 25.98478667 -20.9375 17.1875 C-20.23044922 16.08212891 -19.52339844 14.97675781 -18.79492188 13.83789062 C-8.23882147 -2.56619029 -8.23882147 -2.56619029 0 0 Z " fill="#020304" transform="translate(189,73)"/>
<path d="M0 0 C0.33 1.32 0.66 2.64 1 4 C4.63 4 8.26 4 12 4 C12.66 5.32 13.32 6.64 14 8 C17.30886479 10.20590986 18.33147456 10.2556652 22.18217468 10.2784729 C23.25489624 10.28963638 24.3276178 10.30079987 25.43284607 10.31230164 C26.60960403 10.31446182 27.786362 10.31662201 28.9987793 10.31884766 C30.85749161 10.33391609 30.85749161 10.33391609 32.75375366 10.34928894 C36.15226454 10.37490701 39.55060797 10.39174619 42.94917655 10.40471697 C46.50065615 10.4203357 50.05205083 10.4471299 53.60346985 10.4727478 C60.32883022 10.51955793 67.05420653 10.55629118 73.77964669 10.58942068 C81.43621308 10.62762632 89.09269422 10.67704053 96.74918878 10.72740483 C112.49939759 10.8307579 128.24965418 10.92000727 144 11 C144.10823773 13.24893954 144.18569645 15.49937575 144.25 17.75 C144.29640625 19.00296875 144.3428125 20.2559375 144.390625 21.546875 C144 25 144 25 142.36867905 27.18575668 C139.29792312 29.53774203 137.55595635 29.49362609 133.71051025 29.48101807 C132.41764603 29.48651672 131.1247818 29.49201538 129.79273987 29.49768066 C128.36214838 29.48352489 126.93156065 29.46898566 125.50097656 29.45410156 C123.99301687 29.45297315 122.48505497 29.45360683 120.97709656 29.45587158 C116.88429635 29.45701991 112.79196443 29.43349172 108.69927311 29.40557575 C104.42183362 29.38058172 100.14438357 29.37822168 95.86688232 29.37347412 C87.7672802 29.36103845 79.66789387 29.32820889 71.56838679 29.28807616 C62.34721822 29.24337681 53.12603938 29.22137604 43.90478945 29.20129442 C24.93640393 29.15947674 5.96821931 29.08911324 -13 29 C-14.2062252 25.38132441 -14.10816918 22.07493749 -14.0625 18.3125 C-14.05798828 17.61060547 -14.05347656 16.90871094 -14.04882812 16.18554688 C-14.03706927 14.45699462 -14.01913454 12.72848635 -14 11 C-13.31292969 10.93941406 -12.62585938 10.87882813 -11.91796875 10.81640625 C-11.01691406 10.73261719 -10.11585937 10.64882812 -9.1875 10.5625 C-7.84751953 10.44068359 -7.84751953 10.44068359 -6.48046875 10.31640625 C-3.87256441 10.06510233 -3.87256441 10.06510233 -1 9 C-0.67 6.03 -0.34 3.06 0 0 Z " fill="#61636E" transform="translate(128,171)"/>
<path d="M0 0 C1.15451924 -0.00583219 2.30903847 -0.01166439 3.49854314 -0.01767331 C4.77789287 -0.01389399 6.05724259 -0.01011467 7.37536049 -0.00622082 C8.73954688 -0.0092388 10.10373159 -0.0131265 11.46791327 -0.01781338 C15.22962196 -0.02814785 18.99123592 -0.0258978 22.75295258 -0.02163279 C26.8048488 -0.01917537 30.85672162 -0.02816747 34.90860939 -0.03567028 C42.85196723 -0.04844716 50.79529131 -0.05020723 58.7386577 -0.04787002 C65.19309983 -0.0460899 71.64753168 -0.0478299 78.10197258 -0.05209446 C79.01919128 -0.05268965 79.93640998 -0.05328484 80.88142318 -0.05389806 C82.74452419 -0.05510977 84.6076252 -0.0563239 86.47072621 -0.05754044 C103.95995944 -0.06842765 121.44917341 -0.066248 138.93840773 -0.06015559 C154.94995538 -0.05498627 170.96144219 -0.06624017 186.9729778 -0.08525381 C203.39892646 -0.10461057 219.82484631 -0.11289196 236.25080645 -0.10913056 C245.47858724 -0.10721511 254.70631624 -0.10973937 263.93408775 -0.1238451 C271.79040258 -0.13573242 279.64663378 -0.13719374 287.5029497 -0.12505493 C291.51354125 -0.11914732 295.52397962 -0.11811839 299.53456116 -0.13005733 C303.20356107 -0.14085273 306.87227873 -0.13788917 310.54126509 -0.12379565 C312.50265756 -0.11986538 314.46406228 -0.13074749 316.42542589 -0.14209253 C318.16502798 -0.13128271 318.16502798 -0.13128271 319.93977356 -0.12025452 C320.94266997 -0.12030953 321.94556638 -0.12036455 322.97885358 -0.12042123 C326.03197557 0.316973 327.43487602 1.07055647 329.59572792 3.25447559 C329.59572792 4.24447559 329.59572792 5.23447559 329.59572792 6.25447559 C325.86771654 7.96732172 322.96320913 8.50481841 318.87195778 8.50615788 C317.14781953 8.51398112 317.14781953 8.51398112 315.38885021 8.5219624 C314.13059398 8.51750096 312.87233774 8.51303952 311.57595253 8.50844288 C310.22226449 8.51074755 308.8685777 8.51392412 307.51489353 8.51789737 C303.79609311 8.52625312 300.07739523 8.52211657 296.35859442 8.51592493 C292.34763548 8.51140464 288.33669432 8.5183821 284.32573891 8.52388477 C276.46868032 8.53278493 268.61165991 8.53085399 260.75459981 8.52505949 C254.36984204 8.52054546 247.98509498 8.51992898 241.60033607 8.52210712 C240.69213865 8.52241359 239.78394123 8.52272006 238.84822267 8.52303581 C237.003323 8.52367525 235.15842332 8.52432368 233.31352365 8.52498099 C216.00784851 8.53068611 198.70219455 8.52412354 181.39652288 8.51338026 C166.54266656 8.50444458 151.68884149 8.50599657 136.83498573 8.51521778 C119.59186126 8.5259172 102.34875535 8.53013677 85.10562801 8.52399325 C83.2674586 8.52335615 81.42928918 8.5227274 79.59111977 8.52210712 C78.23444526 8.5216443 78.23444526 8.5216443 76.85036319 8.52117212 C70.4721758 8.5194442 64.09400017 8.52236239 57.71581459 8.52706623 C49.94452048 8.53267141 42.17326678 8.53116626 34.4019773 8.52050474 C30.43582863 8.51524314 26.46974737 8.51319959 22.50359917 8.51980305 C18.87419363 8.52575452 15.24491812 8.5225007 11.61552441 8.51184794 C9.67788469 8.50854908 7.74023598 8.51509208 5.80260563 8.5219624 C4.65318013 8.51674691 3.50375463 8.51153141 2.31949806 8.50615788 C1.32772088 8.50583317 0.3359437 8.50550847 -0.68588734 8.50517392 C-3.58876335 8.23746121 -5.76668669 7.4663222 -8.40427208 6.25447559 C-7.30522338 0.75923209 -5.42547657 0.00469062 0 0 Z " fill="#5E5F6B" transform="translate(24.404272079467773,480.7455244064331)"/>
<path d="M0 0 C0.78419815 -0.00700928 1.5683963 -0.01401855 2.37635803 -0.02124023 C4.96545955 -0.03882832 7.55346573 -0.02719518 10.14257812 -0.01367188 C11.94332082 -0.01636657 13.74406209 -0.0202488 15.5447998 -0.02526855 C19.31760521 -0.03116468 23.09003164 -0.02259707 26.86279297 -0.00390625 C31.69859736 0.01888351 36.53351377 0.00576102 41.36928558 -0.01819611 C45.08736867 -0.03265106 48.80524126 -0.02804952 52.52333069 -0.01768494 C54.30632126 -0.01501681 56.08933095 -0.01829045 57.87229919 -0.02760315 C60.36459969 -0.03776399 62.85546281 -0.02227559 65.34765625 0 C66.08440079 -0.00809692 66.82114532 -0.01619385 67.58021545 -0.02453613 C71.02590694 0.03251216 72.85947252 0.27680541 75.63061523 2.39929199 C77.51156438 4.9811707 77.68872114 6.40682256 77.70507812 9.58007812 C77.7128125 11.02253906 77.7128125 11.02253906 77.72070312 12.49414062 C77.70523438 13.491875 77.68976563 14.48960937 77.67382812 15.51757812 C77.69703125 17.01417969 77.69703125 17.01417969 77.72070312 18.54101562 C77.71554688 19.50265625 77.71039063 20.46429688 77.70507812 21.45507812 C77.70056641 22.33035156 77.69605469 23.205625 77.69140625 24.10742188 C76.97761794 27.4312512 75.87088311 28.45183716 73.17382812 30.51757812 C70.43086392 30.91235776 68.08883605 31.06528219 65.34765625 31.03515625 C64.5634581 31.04216553 63.77925995 31.0491748 62.97129822 31.05639648 C60.3821967 31.07398457 57.79419052 31.06235143 55.20507812 31.04882812 C53.40433543 31.05152282 51.60359416 31.05540505 49.80285645 31.0604248 C46.03005104 31.06632093 42.25762461 31.05775332 38.48486328 31.0390625 C33.64905889 31.01627274 28.81414248 31.02939523 23.97837067 31.05335236 C20.26028758 31.06780731 16.54241499 31.06320577 12.82432556 31.05284119 C11.04133499 31.05017306 9.2583253 31.0534467 7.47535706 31.0627594 C4.98305656 31.07292024 2.49219344 31.05743184 0 31.03515625 C-0.73674454 31.04325317 -1.47348907 31.0513501 -2.2325592 31.05969238 C-5.67825069 31.00264409 -7.51181627 30.75835084 -10.28295898 28.63586426 C-12.16390813 26.05398555 -12.34106489 24.62833369 -12.35742188 21.45507812 C-12.36257812 20.4934375 -12.36773437 19.53179687 -12.37304688 18.54101562 C-12.35757813 17.54328125 -12.34210938 16.54554688 -12.32617188 15.51757812 C-12.34164062 14.51984375 -12.35710937 13.52210938 -12.37304688 12.49414062 C-12.36789063 11.5325 -12.36273438 10.57085937 -12.35742188 9.58007812 C-12.35291016 8.70480469 -12.34839844 7.82953125 -12.34375 6.92773438 C-10.91909525 0.29368169 -5.8683213 -0.06449366 0 0 Z " fill="#FEC25A" transform="translate(108.826171875,246.482421875)"/>
<path d="M0 0 C1.76923828 0.01353516 1.76923828 0.01353516 3.57421875 0.02734375 C4.47785156 0.03894531 5.38148437 0.05054688 6.3125 0.0625 C6.15076325 0.62879749 5.98902651 1.19509499 5.82238865 1.77855301 C5.29779685 4.12835989 5.17404219 6.20050743 5.15428162 8.60565186 C5.13959839 9.96437157 5.13959839 9.96437157 5.12461853 11.35054016 C5.11886307 12.33668808 5.1131076 13.322836 5.10717773 14.33886719 C5.09232834 15.90519142 5.09232834 15.90519142 5.07717896 17.50315857 C5.04558752 20.95520764 5.02081572 24.40727046 4.99609375 27.859375 C4.9755222 30.25262815 4.95452567 32.64587769 4.93312073 35.03912354 C4.87792089 41.33881705 4.82850233 47.63854323 4.78027344 53.93829346 C4.73004323 60.36644398 4.67436508 66.79454704 4.61914062 73.22265625 C4.51158456 85.83589668 4.40994889 98.44917764 4.3125 111.0625 C6.9525 111.0625 9.5925 111.0625 12.3125 111.0625 C12.3125 111.3925 12.3125 111.7225 12.3125 112.0625 C4.0625 112.0625 -4.1875 112.0625 -12.6875 112.0625 C-12.75519551 98.03286683 -12.81026976 84.0033416 -12.84293652 69.97358227 C-12.8586125 63.45945877 -12.87988621 56.9454525 -12.91381836 50.43139648 C-12.94634261 44.14851537 -12.96433844 37.86574724 -12.97213173 31.58278847 C-12.9776877 29.18212416 -12.9885367 26.78146623 -13.00469017 24.38084984 C-13.02637195 21.02614202 -13.02947077 17.67190494 -13.02807617 14.31713867 C-13.038862 13.31804474 -13.04964783 12.31895081 -13.0607605 11.2895813 C-13.05663651 10.37672867 -13.05251251 9.46387604 -13.04826355 8.52336121 C-13.05102893 7.72969745 -13.05379431 6.93603369 -13.05664349 6.11831951 C-12.58861266 3.51178051 -11.7637399 2.66330337 -9.6875 1.0625 C-6.26517028 -0.07827657 -3.60076783 -0.03565117 0 0 Z " fill="#8EC7F0" transform="translate(109.6875,54.9375)"/>
<path d="M0 0 C2.91765891 -0.10806144 5.83131125 -0.18732877 8.75 -0.25 C9.9875 -0.30027344 9.9875 -0.30027344 11.25 -0.3515625 C12.44882812 -0.37089844 12.44882812 -0.37089844 13.671875 -0.390625 C14.4050293 -0.41157227 15.13818359 -0.43251953 15.89355469 -0.45410156 C18.98516472 0.21237904 20.05018576 1.53450963 22 4 C22.50793457 7.14953613 22.50793457 7.14953613 22.51757812 10.90820312 C22.5245874 11.59486557 22.53159668 12.28152802 22.53881836 12.98899841 C22.55639013 15.25349651 22.54477995 17.51673972 22.53125 19.78125 C22.53394519 21.35779052 22.53782783 22.93432942 22.54284668 24.51086426 C22.54874056 27.81290534 22.54018278 31.11451323 22.52148438 34.41650391 C22.49869431 38.6470106 22.51181807 42.87650228 22.53577423 47.10697174 C22.55023551 50.36183303 22.54562483 53.61645407 22.53526306 56.87132263 C22.53259666 58.43102641 22.53586254 59.99075208 22.54518127 61.5504303 C22.55535302 63.73147262 22.53984041 65.91087647 22.51757812 68.09179688 C22.51280457 69.95233704 22.51280457 69.95233704 22.50793457 71.85046387 C21.90858728 75.56682036 20.95921171 76.74938162 18 79 C15.89355469 79.45410156 15.89355469 79.45410156 13.671875 79.390625 C12.87265625 79.37773437 12.0734375 79.36484375 11.25 79.3515625 C10.425 79.31804687 9.6 79.28453125 8.75 79.25 C7.90953125 79.23195313 7.0690625 79.21390625 6.203125 79.1953125 C4.13492605 79.14830798 2.06731559 79.07656724 0 79 C-1.18169498 75.45491506 -1.12710732 72.64098639 -1.12939453 68.89819336 C-1.13114685 68.17920364 -1.13289917 67.46021393 -1.13470459 66.71943665 C-1.13910591 64.34288113 -1.13619147 61.96640002 -1.1328125 59.58984375 C-1.13348596 57.93982428 -1.13445634 56.2898049 -1.13571167 54.63978577 C-1.13718625 51.18229223 -1.13504149 47.72482452 -1.13037109 44.26733398 C-1.12466948 39.82954576 -1.12795706 35.39181796 -1.13394356 30.95403194 C-1.13755182 27.54748578 -1.13640944 24.14095401 -1.13381577 20.73440742 C-1.13314746 19.09769242 -1.13397156 17.46097611 -1.13629532 15.82426262 C-1.13882666 13.54027705 -1.13497464 11.25639029 -1.12939453 8.97241211 C-1.12859894 7.6712999 -1.12780334 6.37018768 -1.12698364 5.02964783 C-1 2 -1 2 0 0 Z " fill="#FBA74B" transform="translate(475,77)"/>
<path d="M0 0 C1.12474228 -0.01260864 2.24948456 -0.02521729 3.40830994 -0.03820801 C4.61878494 -0.03011108 5.82925995 -0.02201416 7.07641602 -0.01367188 C8.32407242 -0.01749878 9.57172882 -0.02132568 10.85719299 -0.02526855 C13.49634272 -0.02799121 16.13401119 -0.02262063 18.77294922 -0.00390625 C22.14700078 0.01886118 25.519778 0.00577359 28.89378262 -0.01819611 C32.12137201 -0.03617176 35.34880995 -0.02356424 38.57641602 -0.01367188 C39.78486679 -0.0217688 40.99331757 -0.02986572 42.23838806 -0.03820801 C43.3662825 -0.02559937 44.49417694 -0.01299072 45.65625 0 C46.645681 0.00318237 47.635112 0.00636475 48.65452576 0.00964355 C52.17295967 0.66228808 53.87095948 2.02058976 56.39282227 4.51757812 C56.95532227 7.51757812 56.95532227 7.51757812 56.39282227 10.51757812 C54.52572316 12.82033369 53.03634485 14.19581683 50.39282227 15.51757812 C48.62726147 15.62864105 46.85758406 15.6767803 45.08862305 15.69458008 C43.98052277 15.70741531 42.87242249 15.72025055 41.73074341 15.73347473 C40.52868256 15.74086166 39.3266217 15.7482486 38.08813477 15.75585938 C36.85747284 15.76393112 35.62681091 15.77200287 34.3588562 15.78031921 C31.75121474 15.79416844 29.14355508 15.80488683 26.53588867 15.81274414 C23.86052746 15.82161373 21.18568404 15.8425076 18.51049805 15.87426758 C14.66121641 15.91677353 10.81262144 15.93309018 6.96313477 15.94335938 C5.16611618 15.96962151 5.16611618 15.96962151 3.33279419 15.99641418 C2.21838959 15.99348862 1.10398499 15.99056305 -0.04418945 15.98754883 C-1.02410858 15.99341507 -2.00402771 15.99928131 -3.01364136 16.00532532 C-6.36962893 15.37418957 -7.54745372 14.19613035 -9.60717773 11.51757812 C-10.10717773 8.01757812 -10.10717773 8.01757812 -9.60717773 4.51757812 C-6.69218924 0.72573522 -4.71309739 0.01517125 0 0 Z " fill="#040200" transform="translate(230.607177734375,231.482421875)"/>
<path d="M0 0 C4.10395867 3.65447748 6.84668262 8.01474537 9.75 12.625 C10.25660156 13.38167969 10.76320312 14.13835937 11.28515625 14.91796875 C14.86017777 20.61294912 15.99204835 25.29855246 15 32 C13.4697133 36.59666864 11.38835836 39.09346964 7.125 41.4375 C3.55400757 42.95286579 0.89615956 43.73052992 -3 43 C-7.18872036 41.11787899 -10.24839643 39.0099673 -13 35.3125 C-14.90757177 28.99366851 -15.33776508 24.24807596 -12.16015625 18.265625 C-8.49337968 11.90993122 -4.29458346 5.94223892 0 0 Z " fill="#557BDA" transform="translate(184,94)"/>
<path d="M0 0 C0.78405212 -0.00686325 1.56810425 -0.0137265 2.37591553 -0.02079773 C4.97027648 -0.03911396 7.56403546 -0.03522139 10.15844727 -0.02954102 C11.96061908 -0.03410066 13.76278914 -0.03940557 15.56495667 -0.04542542 C19.34366922 -0.05436609 23.12217055 -0.05192273 26.90087891 -0.04199219 C31.74452719 -0.03050375 36.58744633 -0.05070698 41.4309988 -0.07990932 C45.15335222 -0.09825188 48.8755303 -0.09798273 52.59791756 -0.0922718 C54.38370855 -0.09211834 56.16951124 -0.09818363 57.95525932 -0.11056328 C60.4524094 -0.12543439 62.94820495 -0.1148257 65.4453125 -0.09765625 C66.55278587 -0.1121582 66.55278587 -0.1121582 67.68263245 -0.12695312 C71.15967153 -0.07686788 72.98010475 0.16883355 75.77748108 2.31040955 C77.28735352 4.40405273 77.28735352 4.40405273 77.28735352 6.40405273 C74.12503301 7.98521299 70.72893644 7.53342395 67.25756836 7.51757812 C66.42822281 7.51772415 65.59887726 7.51787018 64.74440002 7.51802063 C61.99567066 7.51732245 59.24700858 7.50953445 56.49829102 7.50170898 C54.59542884 7.49984447 52.69256619 7.49842072 50.78970337 7.49742126 C45.77553996 7.49359872 40.76140541 7.48377067 35.74725342 7.47271729 C30.63301992 7.46249752 25.51878177 7.45792243 20.40454102 7.45288086 C10.36546582 7.44214818 0.32641207 7.42507489 -9.71264648 7.40405273 C-10.40014648 5.59155273 -10.40014648 5.59155273 -10.71264648 3.40405273 C-8.43392068 -0.70938632 -4.16111479 -0.02530172 0 0 Z " fill="#FED9A3" transform="translate(108.712646484375,246.595947265625)"/>
<path d="M0 0 C5.61 0 11.22 0 17 0 C17.33 5.94 17.66 11.88 18 18 C67.5 18 117 18 168 18 C168 18.33 168 18.66 168 19 C146.98151562 19.11680312 125.96308475 19.20497342 104.94434166 19.25906086 C95.18495204 19.28484218 85.42576409 19.31999134 75.66650391 19.37719727 C67.16029114 19.42703443 58.65422442 19.45929154 50.14786971 19.47044247 C45.64376918 19.47696072 41.14008646 19.49227877 36.63611984 19.52865028 C32.39581775 19.56261482 28.15610514 19.57305214 23.91567993 19.56553841 C22.36043722 19.56691276 20.80517458 19.576843 19.25004959 19.59602737 C6.03436128 19.75104765 6.03436128 19.75104765 2.06460571 16.68644714 C-1.83382537 11.61384225 -0.34486927 6.15016862 0 0 Z " fill="#2D2E38" transform="translate(97,182)"/>
<path d="M0 0 C9 0 9 0 12.03515625 1.90234375 C14.76415869 6.20472733 14.63119165 9.57588936 14.4375 14.5625 C14.43169922 15.41263672 14.42589844 16.26277344 14.41992188 17.13867188 C14.33846253 21.29309836 14.26344536 24.40003501 12 28 C9 30 9 30 0 30 C0 20.1 0 10.2 0 0 Z " fill="#9FA09F" transform="translate(329,247)"/>
<path d="M0 0 C1.01739372 3.15890077 0.91377147 5.06746875 0.0625 8.25 C-1.57002667 15.95598254 -3.00994825 25.57694527 0.34375 32.95703125 C1.9353026 35.36215007 1.9353026 35.36215007 3.6875 37.3984375 C5 39 5 39 5 41 C-0.11772219 41.63971527 -3.11638314 40.2966653 -7.23046875 37.47265625 C-11.12518886 34.23135497 -12.20142467 30.43513967 -12.75 25.5625 C-12.58481521 18.31639392 -7.97285179 12.4954133 -4.09130859 6.65771484 C-2.65739792 4.47958208 -1.32255386 2.24705753 0 0 Z " fill="#4166B0" transform="translate(182,96)"/>
</svg>
